# xmcd
#
# Track frame offsets: 
#        150
#        12249
#        25332
#        45137
#        59652
#        86525
#        97611
#        113135
#        128189
#        139589
#        163102
#        191147
#
# Disc length: 2762 seconds
#
# Revision: 0
# Processed by: cddbd v1.5.2PL0 Copyright (c) Steve Scherf et al.
# Submitted via: ExactAudioCopy v1.3
#
DISCID=940ac80c
DTITLE=Matthew Hall - They Call Me The Kid Vol.2
DYEAR=2017
DGENRE=Blues
TTITLE0=Tipitina
TTITLE1=My New Fangled Stomp
TTITLE2=Blues Attitude
TTITLE3=Lil' Owen's Boogie
TTITLE4=Amazing Grace - When The Saints Come Marching In
TTITLE5=The Huckleby Blues
TTITLE6=I Can't Help Fallin' In Love With You
TTITLE7=Basin Street Blues
TTITLE8=Sugar Blue
TTITLE9=Liszt's Chopstix Boogie
TTITLE10=Boogie Woogie Kid
TTITLE11=Vic The Great's Blues
EXTD=
EXTT0=
EXTT1=
EXTT2=
EXTT3=
EXTT4=
EXTT5=
EXTT6=
EXTT7=
EXTT8=
EXTT9=
EXTT10=
EXTT11=
PLAYORDER=
